<svg xmlns="http://www.w3.org/2000/svg"
     width="900" height="826" viewBox="0 0 900 826">

  <rect width="900" height="826" fill="#FFFFFF"/>

  <text x="450" y="56" font-family="'Malgun Gothic','Apple SD Gothic Neo','Noto Sans KR',sans-serif"
        font-size="13" fill="#55577A" text-anchor="middle">브레인올로지</text>
  <text x="450" y="98" font-family="'Malgun Gothic','Apple SD Gothic Neo','Noto Sans KR',sans-serif"
        font-size="30" font-weight="bold" fill="#1A1A2E" text-anchor="middle">디자인팀 파이프라인</text>
  <line x1="200" y1="110" x2="700" y2="110" stroke="#1A6ACC" stroke-width="2"/>

  <rect x="180" y="120" width="540" height="30" rx="7"
        fill="#dce8f7" stroke="#D0D5E8" stroke-width="1"/>
  <text x="450" y="140" font-family="'Consolas','Courier New',monospace"
        font-size="13" fill="#1A6ACC" text-anchor="middle">/run-design  제품명=뉴턴젤리  용도=메타광고피드  수량=3</text>

  <text x="450" y="178" font-family="'Consolas','Courier New',monospace"
        font-size="11" fill="#55577A" text-anchor="middle">project_id = design_{제품명}_{YYYYMMDD_HHMMSS}</text>

  <g>
    <rect x="50" y="210" width="800" height="104" rx="10"
          fill="#F8F9FC" stroke="#4A90D9" stroke-width="1.2"/>
    <rect x="50" y="210" width="8" height="104" rx="4" fill="#4A90D9"/>
    <rect x="54" y="210" width="4" height="104" fill="#4A90D9"/>

    <rect x="70" y="222" width="66" height="22" rx="5" fill="#4A90D9"/>
    <text x="103" y="237" font-family="'Malgun Gothic','Apple SD Gothic Neo','Noto Sans KR',sans-serif"
          font-size="11" font-weight="bold" fill="#fff" text-anchor="middle">STEP 1</text>
    

    <text x="70" y="265" font-family="'Consolas','Courier New',monospace"
          font-size="11" fill="#55577A">design-briefer</text>

    <text x="260" y="248" font-family="'Malgun Gothic','Apple SD Gothic Neo','Noto Sans KR',sans-serif"
          font-size="19" font-weight="bold" fill="#1A1A2E">디자인 브리프 작성</text>
    <text x="260" y="270" font-family="'Malgun Gothic','Apple SD Gothic Neo','Noto Sans KR',sans-serif"
          font-size="12" fill="#55577A">용도 · 규격 · 핵심 메시지 · 컬러 방향 정의</text>
    <text x="260" y="290" font-family="'Malgun Gothic','Apple SD Gothic Neo','Noto Sans KR',sans-serif" font-size="12" fill="#55577A">금지 사항 · 참고 레퍼런스 포함</text>

    <rect x="670" y="224" width="158" height="22" rx="5"
          fill="#e3eef9" stroke="#4A90D9" stroke-width="0.9"/>
    <text x="749" y="239" font-family="'Consolas','Courier New',monospace"
          font-size="11" font-weight="bold" fill="#4A90D9" text-anchor="middle">Read / Write</text>

    <rect x="650" y="276" width="178" height="24" rx="5"
          fill="#e3eef9" stroke="#4A90D9" stroke-width="0.8"/>
    <text x="739" y="292" font-family="'Consolas','Courier New',monospace"
          font-size="11" fill="#4A90D9" text-anchor="middle">design_brief.md</text>
  </g>
  <line x1="450" y1="314" x2="450" y2="327" stroke="#4A90D9" stroke-width="2"/>
  <polygon points="444,325 456,325 450,333" fill="#4A90D9"/>
  <g>
    <rect x="50" y="332" width="800" height="104" rx="10"
          fill="#F8F9FC" stroke="#3A7AC9" stroke-width="1.2"/>
    <rect x="50" y="332" width="8" height="104" rx="4" fill="#3A7AC9"/>
    <rect x="54" y="332" width="4" height="104" fill="#3A7AC9"/>

    <rect x="70" y="344" width="66" height="22" rx="5" fill="#3A7AC9"/>
    <text x="103" y="359" font-family="'Malgun Gothic','Apple SD Gothic Neo','Noto Sans KR',sans-serif"
          font-size="11" font-weight="bold" fill="#fff" text-anchor="middle">STEP 2</text>
    

    <text x="70" y="387" font-family="'Consolas','Courier New',monospace"
          font-size="11" fill="#55577A">design-image-creator</text>

    <text x="260" y="370" font-family="'Malgun Gothic','Apple SD Gothic Neo','Noto Sans KR',sans-serif"
          font-size="19" font-weight="bold" fill="#1A1A2E">시안 생성</text>
    <text x="260" y="392" font-family="'Malgun Gothic','Apple SD Gothic Neo','Noto Sans KR',sans-serif"
          font-size="12" fill="#55577A">브리프 기반 AI 이미지 생성</text>
    <text x="260" y="412" font-family="'Malgun Gothic','Apple SD Gothic Neo','Noto Sans KR',sans-serif" font-size="12" fill="#55577A">수량만큼 시안 저장</text>

    <rect x="670" y="346" width="158" height="22" rx="5"
          fill="#e1ebf6" stroke="#3A7AC9" stroke-width="0.9"/>
    <text x="749" y="361" font-family="'Consolas','Courier New',monospace"
          font-size="11" font-weight="bold" fill="#3A7AC9" text-anchor="middle">DALL·E / Bash</text>

    <rect x="650" y="398" width="178" height="24" rx="5"
          fill="#e1ebf6" stroke="#3A7AC9" stroke-width="0.8"/>
    <text x="739" y="414" font-family="'Consolas','Courier New',monospace"
          font-size="11" fill="#3A7AC9" text-anchor="middle">image_{N}.png + design_assets.json</text>
  </g>
  <line x1="450" y1="436" x2="450" y2="449" stroke="#3A7AC9" stroke-width="2"/>
  <polygon points="444,447 456,447 450,455" fill="#3A7AC9"/>
  <g>
    <rect x="50" y="454" width="800" height="104" rx="10"
          fill="#F8F9FC" stroke="#2A5A99" stroke-width="1.2"/>
    <rect x="50" y="454" width="8" height="104" rx="4" fill="#2A5A99"/>
    <rect x="54" y="454" width="4" height="104" fill="#2A5A99"/>

    <rect x="70" y="466" width="66" height="22" rx="5" fill="#2A5A99"/>
    <text x="103" y="481" font-family="'Malgun Gothic','Apple SD Gothic Neo','Noto Sans KR',sans-serif"
          font-size="11" font-weight="bold" fill="#fff" text-anchor="middle">STEP 3</text>
    

    <text x="70" y="509" font-family="'Consolas','Courier New',monospace"
          font-size="11" fill="#55577A">design-reviewer</text>

    <text x="260" y="492" font-family="'Malgun Gothic','Apple SD Gothic Neo','Noto Sans KR',sans-serif"
          font-size="19" font-weight="bold" fill="#1A1A2E">브랜드 검수</text>
    <text x="260" y="514" font-family="'Malgun Gothic','Apple SD Gothic Neo','Noto Sans KR',sans-serif"
          font-size="12" fill="#55577A">브랜드 가이드라인 적합성 검토</text>
    <text x="260" y="534" font-family="'Malgun Gothic','Apple SD Gothic Neo','Noto Sans KR',sans-serif" font-size="12" fill="#55577A">REVISION_NEEDED 항목 → 재생성 (최대 2회)</text>

    <rect x="670" y="468" width="158" height="22" rx="5"
          fill="#dfe6ef" stroke="#2A5A99" stroke-width="0.9"/>
    <text x="749" y="483" font-family="'Consolas','Courier New',monospace"
          font-size="11" font-weight="bold" fill="#2A5A99" text-anchor="middle">Read / Write</text>

    <rect x="650" y="520" width="178" height="24" rx="5"
          fill="#dfe6ef" stroke="#2A5A99" stroke-width="0.8"/>
    <text x="739" y="536" font-family="'Consolas','Courier New',monospace"
          font-size="11" fill="#2A5A99" text-anchor="middle">design_review.json</text>
  </g>
  <line x1="450" y1="558" x2="450" y2="571" stroke="#2A5A99" stroke-width="2"/>
  <polygon points="444,569 456,569 450,577" fill="#2A5A99"/>
  <g>
    <rect x="50" y="576" width="800" height="104" rx="10"
          fill="#F8F9FC" stroke="#1A3A69" stroke-width="1.2"/>
    <rect x="50" y="576" width="8" height="104" rx="4" fill="#1A3A69"/>
    <rect x="54" y="576" width="4" height="104" fill="#1A3A69"/>

    <rect x="70" y="588" width="66" height="22" rx="5" fill="#1A3A69"/>
    <text x="103" y="603" font-family="'Malgun Gothic','Apple SD Gothic Neo','Noto Sans KR',sans-serif"
          font-size="11" font-weight="bold" fill="#fff" text-anchor="middle">STEP 4</text>
    

    <text x="70" y="631" font-family="'Consolas','Courier New',monospace"
          font-size="11" fill="#55577A">shared-distributor</text>

    <text x="260" y="614" font-family="'Malgun Gothic','Apple SD Gothic Neo','Noto Sans KR',sans-serif"
          font-size="19" font-weight="bold" fill="#1A1A2E">배포</text>
    <text x="260" y="636" font-family="'Malgun Gothic','Apple SD Gothic Neo','Noto Sans KR',sans-serif"
          font-size="12" fill="#55577A">Slack 전송 (시안 이미지 첨부)</text>
    <text x="260" y="656" font-family="'Malgun Gothic','Apple SD Gothic Neo','Noto Sans KR',sans-serif" font-size="12" fill="#55577A">Notion 페이지 생성</text>

    <rect x="670" y="590" width="158" height="22" rx="5"
          fill="#dce1e8" stroke="#1A3A69" stroke-width="0.9"/>
    <text x="749" y="605" font-family="'Consolas','Courier New',monospace"
          font-size="11" font-weight="bold" fill="#1A3A69" text-anchor="middle">Slack / Notion API</text>

    <rect x="650" y="642" width="178" height="24" rx="5"
          fill="#dce1e8" stroke="#1A3A69" stroke-width="0.8"/>
    <text x="739" y="658" font-family="'Consolas','Courier New',monospace"
          font-size="11" fill="#1A3A69" text-anchor="middle">Slack + Notion</text>
  </g>
  <line x1="450" y1="784" x2="450" y2="797" stroke="#1A6ACC" stroke-width="2"/>
  <polygon points="444,795 456,795 450,803" fill="#1A6ACC"/>
  <rect x="50" y="802" width="800" height="88" rx="10"
        fill="#dce8f7" stroke="#1A6ACC" stroke-width="1.5"/>
  <text x="450" y="824" font-family="'Consolas','Courier New',monospace"
        font-size="12" fill="#1A6ACC" text-anchor="middle">teams/design/outputs/{project_id}/</text>
  <line x1="70" y1="834" x2="830" y2="834"
        stroke="#D0D5E8" stroke-width="0.8"/>
  <text x="70" y="860" font-family="'Consolas','Courier New',monospace"
        font-size="10" fill="#4A90D9">● design_brief.md</text>
  <text x="70" y="878" font-family="'Consolas','Courier New',monospace"
        font-size="9" fill="#55577A" opacity="0.7">Step 1</text>
  <text x="260" y="860" font-family="'Consolas','Courier New',monospace"
        font-size="10" fill="#3A7AC9">● image_{N}.png</text>
  <text x="260" y="878" font-family="'Consolas','Courier New',monospace"
        font-size="9" fill="#55577A" opacity="0.7">Step 2</text>
  <text x="450" y="860" font-family="'Consolas','Courier New',monospace"
        font-size="10" fill="#2A5A99">● design_assets.json</text>
  <text x="450" y="878" font-family="'Consolas','Courier New',monospace"
        font-size="9" fill="#55577A" opacity="0.7">Step 3</text>
  <text x="640" y="860" font-family="'Consolas','Courier New',monospace"
        font-size="10" fill="#1A3A69">● design_review.json</text>
  <text x="640" y="878" font-family="'Consolas','Courier New',monospace"
        font-size="9" fill="#55577A" opacity="0.7">Step 4</text>

  <text x="450" y="814" font-family="'Malgun Gothic','Apple SD Gothic Neo','Noto Sans KR',sans-serif"
        font-size="11" fill="#9090AA" text-anchor="middle">브레인올로지 디자인팀  ·  Claude Code 기반 멀티에이전트 파이프라인</text>
</svg>